# Blender v3.4.1 OBJ File: 'MRE.blend'
# www.blender.org
mtllib Desk.mtl
o Desk
v 4.700000 -0.500000 -3.100000
v 0.800000 1.000000 0.500000
v 0.800000 0.800000 0.500000
v 0.800000 0.800000 -0.500000
v 4.700000 0.800000 -0.500000
v 0.800000 1.000000 -0.500000
v 4.700000 1.000000 -0.498014
v 5.700000 1.000000 0.500000
v 5.700000 0.800000 0.500000
v 5.700000 0.800000 -0.500000
v 5.700000 1.000000 -0.500000
v 5.700000 1.000000 -3.300000
v 5.700000 -0.500000 -3.300000
v 4.700000 -0.500000 -3.300000
v 4.700000 1.000000 -3.300000
v 4.700000 1.000000 -3.100000
v 5.700000 -0.500000 -3.100000
v 5.700000 1.000000 -3.100000
v 4.700000 1.000000 -1.800000
v 4.700001 0.800000 -1.800000
v 5.700000 0.800000 -1.800000
v 5.700000 1.000000 -1.800000
v 4.700000 1.000000 -2.400000
v 4.700000 0.800000 -2.400000
v 5.700000 0.800000 -2.400000
v 5.700000 1.000000 -2.400000
v 0.000000 1.000000 0.500000
v 0.000000 -0.500000 0.500000
v 0.000000 -0.500000 -0.500000
v 0.000000 1.000000 -0.500000
v 0.200000 1.000000 0.500000
v 0.200000 -0.500000 0.500000
v 0.200000 1.000000 -0.500000
v 0.200000 -0.500000 -0.500000
v -4.700000 -0.500000 -3.100000
v -0.800000 1.000000 0.500000
v -0.800000 0.800000 0.500000
v -0.800000 0.800000 -0.500000
v -4.700000 0.800000 -0.500000
v -0.800000 1.000000 -0.500000
v -4.700000 1.000000 -0.498014
v -5.700000 1.000000 0.500000
v -5.700000 0.800000 0.500000
v -5.700000 0.800000 -0.500000
v -5.700000 1.000000 -0.500000
v -5.700000 1.000000 -3.300000
v -5.700000 -0.500000 -3.300000
v -4.700000 -0.500000 -3.300000
v -4.700000 1.000000 -3.300000
v -4.700000 1.000000 -3.100000
v -5.700000 -0.500000 -3.100000
v -5.700000 1.000000 -3.100000
v -4.700000 1.000000 -1.800000
v -4.700001 0.800000 -1.800000
v -5.700000 0.800000 -1.800000
v -5.700000 1.000000 -1.800000
v -4.700000 1.000000 -2.400000
v -4.700000 0.800000 -2.400000
v -5.700000 0.800000 -2.400000
v -5.700000 1.000000 -2.400000
v -0.200000 1.000000 0.500000
v -0.200000 -0.500000 0.500000
v -0.200000 1.000000 -0.500000
v -0.200000 -0.500000 -0.500000
vt 0.000000 0.000000
vt 1.000000 1.000000
vt 1.000000 0.000000
vt 0.000000 0.000000
vt 1.414008 -0.500000
vt 2.543495 -0.500000
vt 1.000000 0.000000
vt 1.000000 1.000000
vt 0.000000 1.000000
vt 0.000000 0.000000
vt 0.000000 1.000000
vt 0.000000 0.000000
vt 2.543495 -0.500000
vt 2.543495 0.985079
vt 1.414008 0.985079
vt 1.414008 -0.499994
vt 1.782280 -0.500000
vt 1.782280 0.985079
vt 0.500000 0.985079
vt 0.500000 -0.500000
vt -2.543495 -1.782280
vt -1.414008 -1.782280
vt -1.414008 -0.500000
vt -2.543495 -0.500000
vt 1.414008 -1.782280
vt 2.543495 -1.782280
vt -1.782280 0.985079
vt -1.782280 -0.500000
vt -0.500000 -0.500000
vt -0.500000 0.985079
vt -3.239671 0.985079
vt -3.239671 -0.500000
vt -3.064560 -0.500000
vt -3.064560 0.985079
vt 1.414008 -3.239671
vt 2.543495 -3.239671
vt 2.543495 -3.064560
vt 1.414008 -3.064560
vt -2.543495 -3.239671
vt -1.414008 -3.239671
vt -1.414008 -3.064560
vt -2.543495 -3.064560
vt 3.239671 -0.500000
vt 3.239671 0.985079
vt 3.064560 0.985079
vt 3.064560 -0.500000
vt -2.423420 0.985079
vt -2.423420 -0.500000
vt 1.414008 -2.423420
vt 2.543495 -2.423420
vt -2.543495 -2.423420
vt -1.414008 -2.423420
vt 2.423420 -0.500000
vt 2.423420 0.985079
vt 0.000000 0.000000
vt 0.000000 0.000000
vt 0.000000 0.000000
vt 0.000000 0.000000
vt 1.000000 1.000000
vt 1.000000 1.000000
vt 1.000000 0.000000
vt 1.000000 0.000000
vt 0.000000 0.000000
vt 0.000000 0.000000
vt 1.000000 0.000000
vt 1.000000 1.000000
vt 1.414008 -0.500000
vt 1.000000 0.000000
vt 2.543495 -0.500000
vt 0.000000 0.000000
vt 0.000000 1.000000
vt 1.000000 1.000000
vt 0.000000 0.000000
vt 0.000000 1.000000
vt 2.543495 -0.500000
vt 1.414008 -0.499994
vt 1.414008 0.985079
vt 2.543495 0.985079
vt 1.782280 -0.500000
vt 0.500000 -0.500000
vt 0.500000 0.985079
vt 1.782280 0.985079
vt -2.543495 -1.782280
vt -2.543495 -0.500000
vt -1.414008 -0.500000
vt -1.414008 -1.782280
vt 1.414008 -1.782280
vt 2.543495 -1.782280
vt -1.782280 0.985079
vt -0.500000 0.985079
vt -0.500000 -0.500000
vt -1.782280 -0.500000
vt -3.239671 0.985079
vt -3.064560 0.985079
vt -3.064560 -0.500000
vt -3.239671 -0.500000
vt 1.414008 -3.239671
vt 1.414008 -3.064560
vt 2.543495 -3.064560
vt 2.543495 -3.239671
vt -2.543495 -3.239671
vt -2.543495 -3.064560
vt -1.414008 -3.064560
vt -1.414008 -3.239671
vt 3.239671 -0.500000
vt 3.064560 -0.500000
vt 3.064560 0.985079
vt 3.239671 0.985079
vt -2.423420 0.985079
vt -2.423420 -0.500000
vt 1.414008 -2.423420
vt 2.543495 -2.423420
vt -2.543495 -2.423420
vt -1.414008 -2.423420
vt 2.423420 -0.500000
vt 2.423420 0.985079
vt 0.000000 0.000000
vt 0.000000 0.000000
vt 1.000000 1.000000
vt 1.000000 0.000000
vn 0.0000 0.0000 1.0000
vn 0.0000 -1.0000 -0.0000
vn 0.0003 0.0050 -1.0000
vn 1.0000 0.0000 0.0000
vn 0.0000 0.0000 -1.0000
vn -1.0000 -0.0000 -0.0000
vn -0.0000 1.0000 0.0000
vn -0.0000 -0.4741 0.8805
vn 0.9080 -0.4191 -0.0000
vn -0.0003 0.0050 -1.0000
vn -0.9080 -0.4191 -0.0000
usemtl Computer
s off
f 3/1/1 9/2/1 8/3/1 2/4/1
f 5/5/2 10/6/2 9/2/2 3/1/2 4/7/2
f 4/7/3 6/8/3 7/9/3 5/10/3
f 8/3/4 9/2/4 10/11/4 11/12/4
f 12/13/5 13/14/5 14/15/5 15/16/5
f 19/17/6 20/18/6 5/19/6 7/20/6
f 22/21/7 19/22/7 7/23/7 11/24/7
f 20/25/2 21/26/2 10/6/2 5/5/2
f 21/27/4 22/28/4 11/29/4 10/30/4
f 7/23/7 6/8/7 2/4/7 8/3/7 11/24/7
f 13/31/4 12/32/4 18/33/4 17/34/4
f 14/35/2 13/36/2 17/37/2 1/38/2
f 12/39/7 15/40/7 16/41/7 18/42/7
f 15/43/6 14/44/6 1/45/6 16/46/6
f 25/47/4 26/48/4 22/28/4 21/27/4
f 24/49/2 25/50/2 21/26/2 20/25/2
f 26/51/7 23/52/7 19/22/7 22/21/7
f 23/53/6 24/54/6 20/18/6 19/17/6
f 16/46/6 1/45/6 24/54/6 23/53/6
f 18/42/7 16/41/7 23/52/7 26/51/7
f 1/38/8 17/37/8 25/50/8 24/49/8
f 17/34/4 18/33/4 26/48/4 25/47/4
f 32/55/1 31/56/1 27/57/1 28/58/1
f 31/56/7 33/59/7 30/60/7 27/57/7
f 33/59/5 34/61/5 29/62/5 30/60/5
f 34/61/2 32/55/2 28/58/2 29/62/2
f 4/7/9 3/1/9 32/55/9 34/61/9
f 6/8/5 4/7/5 34/61/5 33/59/5
f 2/4/7 6/8/7 33/59/7 31/56/7
f 3/1/1 2/4/1 31/56/1 32/55/1
f 37/63/1 36/64/1 42/65/1 43/66/1
f 39/67/2 38/68/2 37/63/2 43/66/2 44/69/2
f 38/68/10 39/70/10 41/71/10 40/72/10
f 42/65/6 45/73/6 44/74/6 43/66/6
f 46/75/5 49/76/5 48/77/5 47/78/5
f 53/79/4 41/80/4 39/81/4 54/82/4
f 56/83/7 45/84/7 41/85/7 53/86/7
f 54/87/2 39/67/2 44/69/2 55/88/2
f 55/89/6 44/90/6 45/91/6 56/92/6
f 41/85/7 45/84/7 42/65/7 36/64/7 40/72/7
f 47/93/6 51/94/6 52/95/6 46/96/6
f 48/97/2 35/98/2 51/99/2 47/100/2
f 46/101/7 52/102/7 50/103/7 49/104/7
f 49/105/4 50/106/4 35/107/4 48/108/4
f 59/109/6 55/89/6 56/92/6 60/110/6
f 58/111/2 54/87/2 55/88/2 59/112/2
f 60/113/7 56/83/7 53/86/7 57/114/7
f 57/115/4 53/79/4 54/82/4 58/116/4
f 50/106/4 57/115/4 58/116/4 35/107/4
f 52/102/7 60/113/7 57/114/7 50/103/7
f 35/98/8 58/111/8 59/112/8 51/99/8
f 51/94/6 59/109/6 60/110/6 52/95/6
f 62/117/1 28/58/1 27/57/1 61/118/1
f 61/118/7 27/57/7 30/60/7 63/119/7
f 63/119/5 30/60/5 29/62/5 64/120/5
f 64/120/2 29/62/2 28/58/2 62/117/2
f 38/68/11 64/120/11 62/117/11 37/63/11
f 40/72/5 63/119/5 64/120/5 38/68/5
f 36/64/7 61/118/7 63/119/7 40/72/7
f 37/63/1 62/117/1 61/118/1 36/64/1
